<?xml version="1.0" encoding="utf-8"?>
<!-- Generator: Adobe Illustrator 21.0.0, SVG Export Plug-In . SVG Version: 6.00 Build 0)  -->
<svg version="1.1" id="Layer_1" xmlns="http://www.w3.org/2000/svg" xmlns:xlink="http://www.w3.org/1999/xlink" x="0px" y="0px"
	 viewBox="0 0 328.5 229.5" style="enable-background:new 0 0 328.5 229.5;" xml:space="preserve">
<style type="text/css">
	.st0{fill:#563D97;}
	.st1{fill:#FFFFFF;}
	.st2{fill:#855EA7;}
	.st3{fill:#DFCFE6;}
	.st4{fill:#2E2E2F;}
</style>
<g>
	<g>
		<path class="st0" d="M309.4,91.5c-0.1,5.5-0.6,11.2-1.7,16.8c-1.3,7-3.3,14.1-5.9,21.1c-2.3,6.2-5.1,12.3-8.3,18.3
			c-4.2,7.7-9,15-14.5,21.8c-8.9,11-19.2,20.6-30.6,27.6C158.6,252.4,11.9,145.8,20,90.3c4.1-28.2,48.4-44.3,77.8-55
			C164.8,11,278.5,3.4,304,62.6c1,2.3,1.8,4.7,2.5,7.1C308.6,76.5,309.5,83.9,309.4,91.5z"/>
	</g>
	<g>
		<path class="st1" d="M181.7,90.9c-4.8-7.9-11.4-14.1-19.9-18.6c-8.4-4.5-17.9-6.7-28.5-6.7c-10.6,0-20.1,2.2-28.5,6.7
			c-8.4,4.5-15,10.7-19.8,18.6c-4.8,7.9-7.2,16.8-7.2,26.7c0,9.9,2.4,18.8,7.2,26.7c4.8,7.9,11.4,14.1,19.8,18.6
			c8.4,4.5,17.9,6.7,28.5,6.7c10.6,0,20.1-2.2,28.5-6.7c8.4-4.5,15-10.7,19.9-18.6c4.8-7.9,7.2-16.8,7.2-26.7
			C188.9,107.7,186.5,98.8,181.7,90.9z M156.8,132.6c-2.4,4.3-5.6,7.7-9.7,10.1c-4.1,2.4-8.7,3.6-13.7,3.6c-5,0-9.6-1.2-13.7-3.6
			c-4.1-2.4-7.3-5.7-9.7-10.1s-3.6-9.3-3.6-14.9c0-5.6,1.2-10.6,3.6-14.9c2.4-4.3,5.6-7.7,9.7-10.1c4.1-2.4,8.7-3.6,13.7-3.6
			c5,0,9.6,1.2,13.7,3.6c4.1,2.4,7.3,5.7,9.7,10.1c2.4,4.3,3.6,9.3,3.6,14.9C160.4,123.3,159.2,128.2,156.8,132.6z"/>
		<path class="st1" d="M231.8,89.5h44.1c0.1-7.6-0.8-15-2.8-21.8h-69.3v99.9h41.8c5.5-6.8,10.3-14.2,14.5-21.8h-28.3v-18.3h36.6
			c2.6-7,4.6-14.1,5.9-21.1h-42.4V89.5z"/>
	</g>
</g>
<rect x="377.1" y="12.4" class="st2" width="48.7" height="67.3"/>
<rect x="374.7" y="-67.3" class="st3" width="48.7" height="67.3"/>
<rect x="377.1" y="86" class="st0" width="48.7" height="67.3"/>
<rect x="377.1" y="159.5" class="st4" width="48.7" height="67.3"/>
</svg>
